<svg width="87" height="45" viewBox="0 0 87 45" fill="none" xmlns="http://www.w3.org/2000/svg">
<path d="M18.4604 19.5632H12.251L7.16039 11.4882H5.1745V19.5632H0V0.416238H5.1745V10.1285L12.0552 0.416238H17.8171L11.0762 9.24049L18.4604 19.5632Z" fill="#242424"/>
<path d="M24.9783 0.416238V19.5632H19.8038V0.416238H24.9783Z" fill="#242424"/>
<path d="M45.2638 0.416238V4.85612H38.5229V19.5632H33.3205V4.85612H26.5796V0.416238H45.2638Z" fill="#242424"/>
<path d="M56.6416 19.9794C54.7769 19.9794 53.2199 19.8222 51.9705 19.5077C50.7212 19.1932 49.6583 18.6567 48.7819 17.8983C47.9055 17.1398 47.2622 16.1223 46.852 14.8458C46.4604 13.5509 46.2646 11.9414 46.2646 10.0175C46.2646 8.03803 46.4697 6.39157 46.8799 5.07811C47.3088 3.74615 47.9801 2.71942 48.8938 1.99795C49.8075 1.25797 50.8703 0.73998 52.0824 0.443989C53.3131 0.147996 54.8328 0 56.6416 0C58.4503 0 59.9607 0.147996 61.1727 0.443989C62.4034 0.73998 63.4756 1.25797 64.3893 1.99795C65.3217 2.71942 65.9929 3.74615 66.4032 5.07811C66.8321 6.39157 67.0465 8.03803 67.0465 10.0175C67.0465 13.7914 66.2447 16.3998 64.641 17.8428C63.0374 19.2672 60.3709 19.9794 56.6416 19.9794ZM56.6416 15.6783C58.0587 15.6783 59.1123 15.5488 59.8022 15.2898C60.4921 15.0123 61.0049 14.4758 61.3406 13.6804C61.6762 12.8664 61.844 11.6454 61.844 10.0175C61.844 8.74101 61.7601 7.73279 61.5923 6.99281C61.4431 6.25283 61.1448 5.67934 60.6972 5.27235C60.2497 4.86537 59.7276 4.60637 59.1309 4.49538C58.5342 4.36588 57.7044 4.30113 56.6416 4.30113C55.56 4.30113 54.7209 4.36588 54.1242 4.49538C53.5462 4.60637 53.0334 4.86537 52.5859 5.27235C52.157 5.66084 51.8586 6.23433 51.6908 6.99281C51.5416 7.73279 51.467 8.74101 51.467 10.0175C51.467 11.2569 51.5416 12.2467 51.6908 12.9866C51.8586 13.7081 52.157 14.2724 52.5859 14.6793C53.0334 15.0863 53.5555 15.3546 54.1522 15.4841C54.7489 15.6136 55.5787 15.6783 56.6416 15.6783Z" fill="#242424"/>
<path d="M83.0842 9.57348V9.82323C85.6947 10.2672 87 11.7102 87 14.1521C87 16.0021 86.4779 17.371 85.4337 18.259C84.3894 19.1285 82.7858 19.5632 80.6228 19.5632H69.4067V0.416238H80.2312C82.4502 0.416238 84.0445 0.823227 85.0141 1.6372C85.9837 2.43268 86.4686 3.76465 86.4686 5.63309C86.4686 7.70504 85.3404 9.0185 83.0842 9.57348ZM79.3082 11.5992H74.5812V15.4563H79.3641C80.2405 15.4563 80.8838 15.3083 81.2941 15.0123C81.7043 14.7163 81.9094 14.2076 81.9094 13.4861C81.9094 12.7646 81.7136 12.2744 81.322 12.0154C80.9491 11.7379 80.2778 11.5992 79.3082 11.5992ZM78.9725 4.52312H74.5812V8.21377H79.0285C79.8303 8.21377 80.4177 8.07503 80.7906 7.79753C81.1822 7.50154 81.378 7.01131 81.378 6.32682C81.378 5.62384 81.2008 5.15211 80.8465 4.91161C80.5109 4.65262 79.8862 4.52312 78.9725 4.52312Z" fill="#242424"/>
<path d="M13.6775 35.0103V35.26C16.288 35.704 17.5933 37.147 17.5933 39.5889C17.5933 41.4389 17.0712 42.8078 16.027 43.6958C14.9827 44.5653 13.3791 45 11.2161 45H0V25.853H10.8245C13.0435 25.853 14.6378 26.26 15.6074 27.074C16.577 27.8695 17.0619 29.2014 17.0619 31.0699C17.0619 33.1418 15.9337 34.4553 13.6775 35.0103ZM9.90148 37.036H5.1745V40.8931H9.95742C10.8338 40.8931 11.4771 40.7451 11.8874 40.4491C12.2976 40.1531 12.5027 39.6444 12.5027 38.9229C12.5027 38.2014 12.3069 37.7112 11.9153 37.4522C11.5424 37.1747 10.8711 37.036 9.90148 37.036ZM9.56583 29.9599H5.1745V33.6506H9.62177C10.4236 33.6506 11.011 33.5118 11.3839 33.2343C11.7755 32.9383 11.9713 32.4481 11.9713 31.7636C11.9713 31.0606 11.7941 30.5889 11.4398 30.3484C11.1042 30.0894 10.4795 29.9599 9.56583 29.9599Z" fill="#242424"/>
<path d="M35.3299 40.8931V45H19.6666V25.853H35.3299V29.9599H24.8411V33.3453H35.2181V37.4522H24.8411V40.8931H35.3299Z" fill="#242424"/>
<path d="M55.7611 45H49.4958L43.7899 36.1757H46.8106C47.8735 36.1757 48.666 35.926 49.1881 35.4265C49.7289 34.927 49.9993 34.0946 49.9993 32.9291C49.9993 31.8376 49.7475 31.0699 49.2441 30.6259C48.7593 30.1819 47.9295 29.9599 46.7547 29.9599H42.9508V45H37.7763V25.853H47.8735C50.4468 25.853 52.3115 26.371 53.4676 27.407C54.6423 28.443 55.2297 30.1357 55.2297 32.4851C55.2297 34.0946 54.8474 35.4358 54.0829 36.5087C53.3184 37.5632 52.1157 38.2199 50.4748 38.4789L55.7611 45Z" fill="#242424"/>
</svg>
